<svg width="138" height="20" viewBox="0 0 138 20" fill="none" xmlns="http://www.w3.org/2000/svg">
<path d="M10.0513 4.98234C10.0513 4.947 10.0513 4.947 10.0513 4.98234C10.0513 3.99294 10.2906 3.14488 10.7008 2.40283C11.1453 1.66078 11.7265 1.06007 12.4786 0.636043C13.2308 0.212014 14.0855 0 15.0427 0C16 0 16.8547 0.212014 17.6068 0.671379C18.359 1.09541 18.9402 1.69611 19.3846 2.4735C19.7949 3.25089 20 4.09894 20 5.05301C20 6.00707 19.7607 6.89046 19.3504 7.63251C18.906 8.4099 18.3248 8.97527 17.5727 9.3993C16.8205 9.82333 15.9658 10.0353 15.0427 10.0353L12.2051 10H10.188H10.0171L10.0513 4.98234Z" fill="#00A378"/>
<path d="M9.94875 15.0176C9.94875 16.007 9.70943 16.855 9.29918 17.5971C8.85473 18.3391 8.27353 18.9398 7.52139 19.3639C6.76925 19.7879 5.91455 19.9999 4.95728 19.9999C4.00001 19.9999 3.14531 19.7879 2.39317 19.3285C1.64103 18.9045 1.05983 18.3038 0.615387 17.5264C0.205129 16.7844 0 15.901 0 14.9469C0 13.9928 0.239317 13.1094 0.649575 12.3674C1.09402 11.59 1.67522 11.0246 2.42736 10.6006C3.1795 10.1766 4.0342 9.96457 4.95728 9.96457L7.7949 9.9999H9.812H9.98294L9.94875 15.0176Z" fill="#E53D40"/>
<path d="M54.9483 5.06342C54.1175 5.06342 53.3646 5.19183 52.7155 5.44865C52.0665 5.70547 51.4953 6.09071 51.08 6.57867V5.16614H48.5617V16.5177H51.1838V10.5594C51.1838 9.50646 51.4694 8.68462 52.0146 8.11961C52.5857 7.5546 53.3386 7.2721 54.2992 7.2721C55.1559 7.2721 55.805 7.50324 56.2723 7.9912C56.7396 8.47916 56.9733 9.19827 56.9733 10.1485V16.5434H59.6473V9.84033C59.6473 8.27371 59.206 7.09232 58.3492 6.27048C57.5185 5.47433 56.3761 5.06342 54.9483 5.06342Z" fill="white"/>
<path d="M79.0928 2H76.4187V16.57H86.6217V14.3304H79.0928V2Z" fill="white"/>
<path d="M45.9395 5.1412H43.3693V16.5512H45.9395V5.1412Z" fill="white"/>
<path d="M91.1908 5.1412H88.6206V16.5512H91.1908V5.1412Z" fill="white"/>
<path d="M124.837 2.51932H122.267L122.241 5.65998H119.671V7.95112H122.241L122.215 16.5493H124.785L124.811 7.97686H127.382V5.68572H124.811L124.837 2.51932Z" fill="white"/>
<path d="M114.297 6.61324C113.518 6.61324 112.843 6.74196 112.22 6.97368C111.597 7.20539 111.078 7.56583 110.636 8.00351V2.57114H108.066V16.5511H110.636V12.1486C110.636 11.093 110.922 10.2691 111.467 9.70274C112.012 9.13633 112.765 8.85313 113.7 8.85313C114.531 8.85313 115.18 9.08484 115.621 9.57401C116.062 10.0632 116.296 10.7841 116.296 11.7367V16.5511H118.866V11.4277C118.866 9.83147 118.451 8.64716 117.62 7.84904C116.789 7.02517 115.673 6.61324 114.297 6.61324Z" fill="white"/>
<path d="M102.9 5.03641V6.47843C102.458 5.93767 101.913 5.55141 101.264 5.29391C100.615 5.03641 99.8882 4.90765 99.1093 4.90765C98.0709 4.90765 97.1362 5.11366 96.2795 5.55141C95.4228 5.98917 94.7737 6.58143 94.2804 7.37969C93.7872 8.17796 93.5535 9.07922 93.5275 10.1092C93.5275 11.1393 93.7612 12.0663 94.2545 12.8645C94.7477 13.6628 95.3968 14.3066 96.2276 14.7443C96.7728 15.0276 97.3699 15.2336 97.993 15.3366C98.3305 15.3881 98.668 15.4138 99.0314 15.4138C99.7843 15.4138 100.485 15.3108 101.108 15.0533C101.731 14.8216 102.277 14.4611 102.718 13.9718V14.5383C102.718 15.6456 102.432 16.4696 101.861 17.0103C101.29 17.5511 100.407 17.8086 99.2132 17.8086C98.4603 17.8086 97.7074 17.6799 96.9805 17.4481C96.591 17.3194 96.2535 17.1649 95.942 17.0103L94.1247 18.5039C94.7218 18.9674 95.4487 19.3279 96.3314 19.5854C97.266 19.8429 98.2785 19.9974 99.317 19.9974C103.263 20.0231 105.236 18.1176 105.262 14.2808L105.288 9.28522L105.314 5.03641H102.9ZM102.406 11.68C102.251 11.9375 102.069 12.1693 101.835 12.3753C101.524 12.6585 101.16 12.8903 100.745 13.019C100.355 13.1478 99.9141 13.225 99.4209 13.225C98.4343 13.225 97.6295 12.916 97.0064 12.3495C96.3833 11.7573 96.0718 11.0105 96.0718 10.0835C96.0718 9.18222 96.3833 8.43546 97.0064 7.86895C97.6295 7.30244 98.4343 7.01919 99.4209 7.01919C100.381 7.01919 101.186 7.30244 101.809 7.8947C102.432 8.46121 102.744 9.20797 102.744 10.1092C102.796 10.7272 102.666 11.2423 102.406 11.68Z" fill="white"/>
<path d="M137.377 11.413C136.961 11.002 136.494 10.6937 135.923 10.5138C135.352 10.334 134.651 10.1799 133.768 10.0514C133.586 10.0257 133.431 10 133.275 9.94863C132.652 9.82017 132.159 9.69172 131.821 9.56326C131.406 9.38342 131.198 9.10082 131.198 8.68976C131.198 8.33008 131.406 8.02179 131.795 7.81626C132.185 7.58504 132.756 7.48227 133.509 7.48227C134.313 7.48227 135.066 7.61073 135.767 7.89333L137.611 6.35186C137.143 6.06925 136.52 5.83803 135.793 5.68388C135.04 5.50405 134.287 5.42697 133.535 5.42697C132.055 5.42697 130.886 5.73527 130.004 6.35186C129.121 6.96845 128.706 7.79057 128.706 8.81822C128.706 9.61464 128.913 10.2055 129.329 10.668C129.744 11.1047 130.237 11.413 130.809 11.5929C130.938 11.6186 131.068 11.6699 131.198 11.6956C131.691 11.8241 132.314 11.9525 133.041 12.0553C133.898 12.1838 134.521 12.3379 134.911 12.4921C135.3 12.6462 135.508 12.9031 135.508 13.2885C135.508 14.0849 134.729 14.496 133.197 14.496C132.522 14.496 131.847 14.3932 131.146 14.2134C130.809 14.1106 130.471 14.0078 130.185 13.8794L128.394 15.3695C128.887 15.7292 129.588 16.0118 130.419 16.243C131.276 16.4742 132.133 16.577 133.041 16.577C134.573 16.577 135.793 16.2687 136.676 15.6521C137.559 15.0355 138 14.2391 138 13.2114C137.974 12.4407 137.792 11.8498 137.377 11.413Z" fill="white"/>
<path d="M35.1135 9.00266L41.0847 3.98244H40.929H38.9559H37.7876H37.3982L30.6741 9.64627V9.49181L30.6481 9.46606V2.02585H28V15.0784V16.5458H30.6481V12.8386L33.1404 10.7276L38.0212 16.5458H41.1367L35.1395 9.0284L35.1135 9.00266Z" fill="white"/>
<path d="M70.1878 5.9126C69.3311 5.42446 68.3446 5.19324 67.2542 5.19324C66.1638 5.19324 65.2032 5.42446 64.3464 5.9126C63.4897 6.40074 62.8147 7.06872 62.3214 7.91655C61.8282 8.76437 61.5945 9.74065 61.5945 10.8454C61.5945 11.9244 61.8282 12.9264 62.3214 13.7742C62.8147 14.6477 63.4897 15.3157 64.3464 15.8039C65.2032 16.292 66.1897 16.5232 67.2542 16.5232C68.3446 16.5232 69.3311 16.292 70.1878 15.8039C71.0446 15.3157 71.7196 14.6477 72.2129 13.7742C72.7061 12.9007 72.9398 11.9244 72.9398 10.8454C72.9398 9.76634 72.7061 8.79006 72.2129 7.91655C71.7196 7.06872 71.0446 6.40074 70.1878 5.9126ZM69.5128 13.3632C68.9157 14.0055 68.1628 14.3138 67.2282 14.3138C66.3195 14.3138 65.5666 14.0055 64.9695 13.3632C64.3724 12.7209 64.0868 11.8987 64.0868 10.8454C64.0868 9.79204 64.3724 8.9699 64.9695 8.32761C65.5666 7.68532 66.3195 7.37702 67.2282 7.37702C68.1369 7.37702 68.9157 7.68532 69.5128 8.32761C70.11 8.9699 70.4215 9.79204 70.4215 10.8454C70.4215 11.8987 70.11 12.7209 69.5128 13.3632Z" fill="white"/>
</svg>
