<?xml version="1.0" standalone="no"?>
<!DOCTYPE svg PUBLIC "-//W3C//DTD SVG 20010904//EN"
 "http://www.w3.org/TR/2001/REC-SVG-20010904/DTD/svg10.dtd">
<svg version="1.0" xmlns="http://www.w3.org/2000/svg"
 width="512.000000pt" height="512.000000pt" viewBox="0 0 512.000000 512.000000"
 preserveAspectRatio="xMidYMid meet">
<metadata>
Created by potrace 1.14, written by Peter Selinger 2001-2017
</metadata>
<g transform="translate(0.000000,512.000000) scale(0.100000,-0.100000)"
fill="#000000" stroke="none">
<path d="M1474 4401 c-63 -15 -160 -72 -213 -123 -91 -90 -172 -229 -240 -414
-28 -77 -83 -285 -96 -364 -3 -19 -7 -42 -10 -50 -4 -15 -11 -74 -24 -210 -9
-80 -6 -618 3 -785 3 -55 8 -156 11 -225 15 -330 25 -494 30 -530 2 -14 7 -50
10 -80 14 -123 55 -324 94 -458 61 -211 161 -361 279 -419 47 -23 69 -27 129
-27 229 4 423 242 519 639 27 113 60 299 70 395 3 36 8 67 9 70 6 11 19 286
18 405 0 123 -11 488 -18 560 -1 22 -6 81 -10 130 -3 50 -8 106 -10 125 -2 19
-7 76 -10 125 -3 50 -8 97 -10 105 -2 8 -7 45 -10 82 -3 37 -8 76 -10 87 -2
11 -6 45 -10 76 -27 256 -126 517 -236 627 -43 43 -53 48 -92 48 -30 0 -53 -7
-71 -21 -28 -22 -54 -66 -50 -86 1 -7 2 -23 3 -36 0 -13 9 -32 19 -43 86 -93
150 -254 182 -459 6 -38 13 -81 15 -95 2 -14 7 -52 10 -85 3 -33 8 -73 10 -90
2 -16 7 -66 11 -110 3 -44 8 -93 9 -110 2 -16 6 -70 10 -120 3 -49 8 -110 10
-135 23 -248 24 -858 1 -975 -2 -11 -7 -47 -10 -80 -13 -116 -69 -371 -103
-470 -30 -87 -85 -195 -126 -245 -24 -31 -86 -72 -115 -76 -23 -4 -36 2 -64
30 -37 37 -85 129 -112 211 -18 59 -62 243 -70 300 -4 22 -9 47 -11 55 -3 8
-7 35 -9 60 -3 25 -8 68 -11 95 -8 59 -11 115 -19 290 -4 72 -8 159 -11 195
-19 267 -26 941 -12 1080 35 345 153 690 283 824 30 31 59 56 65 56 6 0 34 11
62 25 104 49 118 152 28 212 -36 24 -46 26 -97 14z"/>
<path d="M2735 3710 c-167 -38 -270 -260 -319 -690 -21 -185 -28 -622 -13
-855 17 -275 67 -530 124 -636 33 -62 101 -127 149 -144 134 -47 310 52 408
228 67 120 127 314 151 487 16 123 25 201 30 265 7 89 8 457 2 510 -3 22 -9
78 -12 125 -14 170 -18 194 -52 310 -43 148 -119 262 -206 307 -18 9 -45 26
-62 38 -70 52 -135 70 -200 55z m145 -362 c22 -33 52 -86 66 -117 14 -31 32
-69 40 -85 14 -30 24 -75 29 -129 48 -565 -6 -1063 -139 -1291 -25 -42 -98
-116 -115 -116 -26 0 -80 188 -96 335 -4 33 -9 62 -10 65 -11 18 -20 252 -20
500 0 250 7 421 20 501 2 13 6 47 10 74 9 72 34 192 52 252 15 46 20 53 52 61
64 17 69 15 111 -50z"/>
<path d="M3865 3101 c-6 -5 -27 -14 -48 -21 -87 -28 -176 -157 -213 -310 -18
-75 -23 -243 -10 -322 3 -21 9 -55 12 -75 12 -74 55 -206 87 -265 44 -83 131
-176 185 -199 168 -72 311 70 349 349 9 69 9 314 -1 397 -25 214 -108 370
-228 431 -47 24 -116 32 -133 15z m75 -291 c63 -123 78 -442 30 -620 -11 -41
-12 -41 -31 -24 -10 9 -30 41 -44 70 -85 180 -92 486 -13 596 23 33 32 30 58
-22z"/>
</g>
</svg>
