<svg xmlns="http://www.w3.org/2000/svg" width="1040" height="460" fill="none" viewBox="0 0 1040 460"><path fill="#000" d="M730.356 287.811c-23.741 0-40.79-17.686-40.79-42.064 0-24.219 17.049-41.745 40.152-41.745s40.312 17.526 40.312 41.745c0 1.274-.16 3.186-.319 4.78H707.89c1.752 13.065 10.994 22.147 23.103 22.147 8.604 0 16.571-4.621 20.554-11.472l14.34 9.241c-7.17 10.357-21.032 17.368-35.531 17.368m-21.67-50.827h42.224c-2.868-10.676-10.994-17.846-21.192-17.846-10.197 0-18.164 7.17-21.032 17.846m-54.387 50.558v-81.451h18.477v85.818c0 11.254-2.183 19.485-6.719 24.356-5.207 5.879-12.43 8.735-21.668 8.735l-5.04-16.629q8.316 0 11.591-4.536c2.183-3.191 3.359-8.566 3.359-16.293m20.811-111.867c0 6.411-5.197 11.608-11.609 11.608-6.411 0-11.608-5.197-11.608-11.608s5.197-11.609 11.608-11.609 11.609 5.197 11.609 11.609m117.102-.005h18.482v30.403h16.093v15.137h-16.093v64.529h-18.482V221.21h-13.013v-15.137h13.013z"/><path fill="#000" fill-rule="evenodd" d="m398.096 285.739 14.944-30.251h56.808l14.761 30.251h19.276L441.442 158 379 285.739zm22.686-46.072 20.66-42.1 20.661 42.1z" clip-rule="evenodd"/><path fill="#000" d="M636.593 233.276c-5.783-7.374-12.766-13.353-25.807-13.353-13.544 0-23.422 10.846-23.422 25.983 0 14.977 9.878 25.971 23.422 25.971 13.041 0 20.024-6.117 25.807-13.475v20.959c-6.947 5.322-15.795 8.45-25.807 8.45-24.06 0-41.427-17.686-41.427-41.905 0-24.378 17.367-41.904 41.427-41.904 9.978 0 18.872 3.034 25.807 8.324zm-103.542 52.463h-18.436v-79.627h18.436v7.629c3.552-3.979 6.508-6.305 8.909-7.437 2.842-1.339 5.983-2.203 9.67-2.203s9.914 1.508 15.11 4.693l-8.38 16.76c-3.52-2.514-6.872-3.687-10.224-3.687q-15.085 0-15.085 22.626zm-247.787-56.687c12.613 3.223 23.038 5.806 44.736 10.618-21.698 4.812-32.123 7.395-44.736 10.618a11.99 11.99 0 0 0-8.646 8.646c-3.223 12.609-5.807 23.039-10.618 44.736-4.811-21.697-7.395-32.127-10.618-44.736a11.99 11.99 0 0 0-8.646-8.646c-12.613-3.223-23.038-5.806-44.736-10.618 21.698-4.812 32.123-7.395 44.736-10.618a11.99 11.99 0 0 0 8.646-8.646c3.223-12.609 5.807-23.039 10.618-44.736 4.811 21.697 7.395 32.127 10.618 44.736a11.99 11.99 0 0 0 8.646 8.646"/><path fill="#000" fill-rule="evenodd" d="m174.499 236.17 3.501 3.501-3.501 3.501c-32.237-2.368-62.608-2.703-111.542-3.242-7.226-.08-14.856-.164-22.957-.259 7.979-.094 15.502-.177 22.63-.256 49.126-.541 79.56-.877 111.869-3.245M956 230c0 79.642-72.998 145.735-151.51 145.75h-.054q-.593 0-1.185-.005C883.17 375.073 947.75 310.078 947.75 230S883.17 84.927 803.25 84.255q.586-.005 1.172-.005h.082C883.011 84.273 956 150.363 956 230" clip-rule="evenodd"/></svg>