<svg width="160" height="44" viewBox="0 0 160 44" fill="none" xmlns="http://www.w3.org/2000/svg">
<g clip-path="url(#clip0_943_358)">
<mask id="mask0_943_358" style="mask-type:luminance" maskUnits="userSpaceOnUse" x="0" y="0" width="160" height="44">
<path d="M160 0H0V44H160V0Z" fill="white"/>
</mask>
<g mask="url(#mask0_943_358)">
<mask id="mask1_943_358" style="mask-type:luminance" maskUnits="userSpaceOnUse" x="0" y="0" width="160" height="44">
<path d="M160 0H0V44H160V0Z" fill="white"/>
</mask>
<g mask="url(#mask1_943_358)">
<path d="M137.239 41.0209L132.798 35.2886H131.692V42.9727H132.814V37.0841L137.38 42.9727H138.361V35.2886H137.239V41.0209Z" fill="white"/>
<path d="M126.058 39.5953H130.037V38.5969H126.056V36.2842H130.546V35.2856H124.912V42.9727H130.603V41.9743H126.056L126.058 39.5953Z" fill="white"/>
<path d="M121.378 38.6211C119.829 38.2481 119.396 37.9534 119.396 37.2377C119.396 36.594 119.964 36.158 120.812 36.158C121.585 36.1805 122.33 36.4492 122.939 36.9248L123.541 36.0737C122.77 35.4694 121.813 35.1506 120.833 35.1714C119.312 35.1714 118.25 36.0737 118.25 37.3579C118.25 38.7413 119.152 39.2195 120.795 39.6195C122.257 39.9564 122.704 40.2691 122.704 40.9699C122.704 41.6706 122.103 42.1037 121.173 42.1037C120.248 42.0995 119.358 41.7499 118.678 41.1232L118.001 41.9323C118.873 42.6815 119.985 43.0924 121.135 43.0902C122.783 43.0902 123.842 42.203 123.842 40.8316C123.833 39.6707 123.147 39.0481 121.378 38.6211Z" fill="white"/>
<path d="M158.707 35.2886L156.394 38.8976L154.097 35.2886H152.755L155.789 39.9352V42.9758H156.945V39.8991L160 35.2886H158.707Z" fill="white"/>
<path d="M139.268 36.3293H141.786V42.9758H142.941V36.3293H145.458V35.2886H139.272L139.268 36.3293Z" fill="white"/>
<path fill-rule="evenodd" clip-rule="evenodd" d="M150.8 39.9742C151.962 39.6523 152.605 38.8403 152.605 37.6794C152.605 36.2028 151.524 35.2734 149.783 35.2734H146.366V42.9695H147.51V40.2087H149.45L151.399 42.9756H152.734L150.629 40.0223L150.8 39.9742ZM147.507 39.2223V36.305H149.663C150.788 36.305 151.431 36.8373 151.431 37.7606C151.431 38.6839 150.743 39.2223 149.675 39.2223H147.507Z" fill="white"/>
<path fill-rule="evenodd" clip-rule="evenodd" d="M101.252 42.9499C101.171 42.9499 101.109 42.9281 101.066 42.8841C101.022 42.833 101 42.7709 101 42.6979V35.5403C101 35.4599 101.022 35.3978 101.066 35.354C101.109 35.3029 101.171 35.2773 101.252 35.2773H104.259C104.808 35.2773 105.253 35.3685 105.597 35.5513C105.948 35.7266 106.204 35.9678 106.365 36.2747C106.533 36.5816 106.618 36.9251 106.618 37.3051C106.618 37.6046 106.566 37.8641 106.464 38.0832C106.369 38.2952 106.249 38.4706 106.102 38.6094C105.956 38.741 105.814 38.8433 105.674 38.9163C105.96 39.0551 106.212 39.2817 106.431 39.5958C106.657 39.91 106.771 40.29 106.771 40.7358C106.771 41.1377 106.68 41.5068 106.497 41.8428C106.315 42.1791 106.04 42.4493 105.674 42.654C105.315 42.8513 104.87 42.9499 104.336 42.9499H101.252ZM102.076 42.0621H104.193C104.668 42.0621 105.034 41.9342 105.29 41.6784C105.546 41.4227 105.674 41.1085 105.674 40.7358C105.674 40.3485 105.546 40.0307 105.29 39.7821C105.034 39.5265 104.668 39.3986 104.193 39.3986H102.076V42.0621ZM102.076 38.5217H104.094C104.562 38.5217 104.917 38.4157 105.158 38.2038C105.4 37.9846 105.521 37.6887 105.521 37.316C105.521 36.9433 105.4 36.6584 105.158 36.461C104.917 36.2638 104.562 36.1651 104.094 36.1651H102.076V38.5217Z" fill="white"/>
<path d="M110.221 42.8841C110.273 42.9281 110.335 42.9499 110.408 42.9499H110.979C111.06 42.9499 111.122 42.9281 111.165 42.8841C111.217 42.833 111.242 42.7709 111.242 42.6979V40.1111L113.876 35.6389C113.89 35.6171 113.901 35.5952 113.907 35.5732C113.915 35.5513 113.919 35.5257 113.919 35.4964C113.919 35.438 113.897 35.3869 113.853 35.343C113.81 35.2992 113.755 35.2773 113.689 35.2773H113.13C113.064 35.2773 113.004 35.2955 112.953 35.332C112.909 35.3613 112.87 35.4052 112.833 35.4636L110.693 39.0149L108.553 35.4636C108.532 35.4052 108.495 35.3613 108.444 35.332C108.392 35.2955 108.334 35.2773 108.269 35.2773H107.698C107.64 35.2773 107.588 35.2992 107.545 35.343C107.5 35.3869 107.479 35.438 107.479 35.4964C107.479 35.5257 107.483 35.5513 107.489 35.5732C107.493 35.584 107.497 35.5948 107.5 35.6055C107.504 35.6167 107.508 35.6278 107.512 35.6389L110.155 40.1111V42.6979C110.155 42.7709 110.178 42.833 110.221 42.8841Z" fill="white"/>
<path d="M51.0821 8.70579C53.3791 8.70579 55.2164 9.46914 56.7476 11.0468L56.8497 11.1485L58.8913 9.16381L58.8403 9.06202C57.0026 7.02636 54.1956 5.90675 50.9803 5.90675C44.6515 5.90675 40.0068 10.2834 40.0068 16.3394C40.0068 22.3955 44.6004 26.7722 50.9292 26.7722C54.1445 26.7722 56.9519 25.6526 58.8403 23.566L58.8913 23.4642L56.8497 21.4795L56.7476 21.5813C55.2164 23.1589 53.328 23.9731 51.0821 23.9731C46.4888 23.9731 43.1714 20.767 43.1714 16.3394C43.1714 11.9119 46.5399 8.70579 51.0821 8.70579ZM67.6189 24.1258C64.6076 24.1258 62.5149 21.9375 62.5149 18.884C62.5149 15.7796 64.6076 13.6422 67.6189 13.6422C70.6302 13.6422 72.7226 15.7796 72.7226 18.884C72.7226 21.9884 70.6302 24.1258 67.6189 24.1258ZM67.6189 10.9959C62.8721 10.9959 59.4525 14.3038 59.4525 18.884C59.4525 23.4642 62.8721 26.7722 67.6189 26.7722C72.3654 26.7722 75.785 23.4642 75.785 18.884C75.785 14.3038 72.3144 10.9959 67.6189 10.9959ZM84.9722 24.1258C81.9609 24.1258 79.8171 21.9375 79.8171 18.8331C79.8171 15.7288 81.9098 13.5404 84.9722 13.5404C87.9833 13.5404 90.0759 15.7288 90.0759 18.8331C90.0759 21.9375 87.9833 24.1258 84.9722 24.1258ZM90.0759 13.1333C88.8001 11.6574 86.9625 10.8941 84.7679 10.8941C80.0722 10.8941 76.8058 14.1511 76.8058 18.8331C76.8058 23.5151 80.0722 26.7722 84.7679 26.7722C87.0135 26.7722 88.953 25.907 90.1781 24.3803V26.5686H93.0873V4.88894H90.0249L90.0759 13.1333ZM102.887 13.5404C105.388 13.5404 107.276 15.2198 107.633 17.6626H98.1913C98.4974 15.2198 100.335 13.5404 102.887 13.5404ZM102.887 10.9959C98.3952 10.9959 95.1799 14.3038 95.1799 18.884C95.1799 23.5151 98.5485 26.7722 103.448 26.7722C106 26.7722 108.093 25.907 109.522 24.2785L109.573 24.2276L107.889 22.2937L107.786 22.3955C106.715 23.566 105.286 24.1767 103.499 24.1767C100.641 24.1767 98.5485 22.5482 98.1402 19.9527H110.39V19.851C110.441 19.5965 110.441 19.2402 110.441 18.9858C110.492 14.2529 107.327 10.9959 102.887 10.9959ZM124.425 21.9884C123.506 23.3624 122.077 24.1258 120.291 24.1258C117.178 24.1258 115.085 21.9884 115.085 18.884C115.085 15.7796 117.229 13.6422 120.291 13.6422C122.077 13.6422 123.506 14.3547 124.425 15.7796L124.476 15.8814L126.824 14.4056L126.773 14.3038C125.548 12.2173 123.2 10.9959 120.342 10.9959C115.544 10.9959 112.023 14.3038 112.023 18.884C112.023 23.4642 115.544 26.7722 120.342 26.7722C123.2 26.7722 125.548 25.5508 126.773 23.4133L126.824 23.3115L124.476 21.8866L124.425 21.9884ZM136.011 24.1258C133 24.1258 130.907 21.9375 130.907 18.884C130.907 15.7796 133 13.6422 136.011 13.6422C139.022 13.6422 141.115 15.7796 141.115 18.884C141.115 21.9884 139.022 24.1258 136.011 24.1258ZM136.011 10.9959C131.264 10.9959 127.845 14.3038 127.845 18.884C127.845 23.4642 131.264 26.7722 136.011 26.7722C140.758 26.7722 144.177 23.4642 144.177 18.884C144.177 14.3038 140.707 10.9959 136.011 10.9959ZM157.039 10.9959L151.833 22.9044L146.729 10.9959H143.616L150.302 26.2124L150.353 26.2632H153.313L159.999 10.9959H157.039ZM16.2354 0.910156C7.28788 0.910156 0 8.10502 0 16.8827V16.9547L2.74197 18.5375H2.81413C4.5459 17.3864 6.63848 16.9547 8.73103 17.3144C10.1742 17.6022 11.5451 18.2497 12.6275 19.257L13.1326 19.6887L13.4213 19.1131C13.7099 18.5375 13.9985 18.0339 14.2871 17.5303C14.4314 17.3144 14.5758 17.1705 14.7201 16.9547L15.0087 16.5949L14.6479 16.3071C13.1326 15.084 11.3287 14.2206 9.38043 13.8609C7.50436 13.5011 5.62825 13.5731 3.8965 14.1487C5.19533 8.46476 10.2463 4.43562 16.2354 4.43562C19.6268 4.43562 22.8017 5.73071 25.1829 8.10502C26.9147 9.75984 28.0692 11.8463 28.5743 14.1487C27.4919 13.7889 26.3374 13.645 25.1829 13.645H24.9664C24.5335 13.645 24.1005 13.717 23.5954 13.717H23.5233C23.379 13.717 23.1625 13.7889 23.0182 13.7889C22.7295 13.8609 22.513 13.8609 22.2244 13.9328L22.008 14.0048C21.7915 14.0767 21.575 14.1487 21.3585 14.2206H21.2864C20.7813 14.3645 20.3483 14.5804 19.8433 14.7962C19.6268 14.8682 19.4103 15.0121 19.1938 15.156H19.1217C18.0393 15.8035 17.0291 16.5949 16.2354 17.6022L16.1632 17.7461C15.9468 18.0339 15.8024 18.2497 15.6581 18.3936C15.5138 18.5375 15.4416 18.7534 15.2973 18.9692L15.2252 19.1131C15.0809 19.329 15.0087 19.5448 14.9366 19.6887V19.7607C14.7201 20.1923 14.5036 20.696 14.3593 21.1996V21.2716C13.9985 22.4228 13.782 23.6459 13.782 24.9409V25.0849C13.782 25.2287 13.782 25.4446 13.782 25.5885C13.782 25.6604 13.782 25.7324 13.782 25.8043C13.782 25.8763 13.782 26.0202 13.782 26.0921V26.1641V26.308C13.782 26.4519 13.8542 26.6677 13.8542 26.8116C14.215 28.5384 15.0087 30.1931 16.2354 31.7042L16.3075 31.7761L16.3797 31.7042C16.8848 31.1287 18.0393 29.3298 18.1836 28.2506C17.6064 27.1714 17.3177 25.9482 17.3177 24.7971C17.3177 20.7679 20.4927 17.3864 24.6056 17.1705H24.8942C26.5539 17.0986 28.2135 17.6022 29.5845 18.5375H29.6566L32.3986 16.9547V16.8827C32.3986 12.6378 30.7391 8.60864 27.6362 5.58683C24.6056 2.56498 20.5648 0.910156 16.2354 0.910156Z" fill="white"/>
</g>
</g>
</g>
<defs>
<clipPath id="clip0_943_358">
<rect width="160" height="44" fill="white"/>
</clipPath>
</defs>
</svg>
