<svg width="206" height="32" viewBox="0 0 206 32" fill="none" xmlns="http://www.w3.org/2000/svg">
<g clip-path="url(#clip0_10121_47824)">
<path d="M51.6575 13.502C52.456 12.0936 53.569 10.992 54.9965 10.2052C56.424 9.41832 58.0451 9.0249 59.8517 9.0249C62.0696 9.0249 63.9649 9.5993 65.5457 10.7402C67.1265 11.8811 68.1749 13.4391 68.7072 15.4141H63.7068C63.3358 14.6508 62.8035 14.0764 62.1261 13.6751C61.4405 13.2739 60.6663 13.0771 59.7952 13.0771C58.3919 13.0771 57.2628 13.5493 56.3918 14.5013C55.5207 15.4534 55.0852 16.7281 55.0852 18.3175C55.0852 19.9069 55.5207 21.1816 56.3918 22.1337C57.2628 23.0858 58.3919 23.5579 59.7952 23.5579C60.6663 23.5579 61.4405 23.3612 62.1261 22.9599C62.8116 22.5586 63.3358 21.9842 63.7068 21.221H68.7072C68.1749 23.196 67.1184 24.746 65.5457 25.8791C63.9649 27.0121 62.0696 27.5787 59.8517 27.5787C58.0451 27.5787 56.424 27.1853 54.9965 26.3984C53.569 25.6116 52.456 24.5179 51.6575 23.1173C50.8591 21.7167 50.4639 20.1194 50.4639 18.3175C50.4639 16.5157 50.8591 14.9105 51.6575 13.502Z" fill="white"/>
<path d="M73.8047 26.7526C72.6433 26.1467 71.732 25.2812 71.0626 24.156C70.4012 23.0308 70.0625 21.7168 70.0625 20.2139C70.0625 18.7111 70.4012 17.4128 71.0706 16.2797C71.7481 15.1467 72.6675 14.2811 73.837 13.6753C75.0064 13.0694 76.3211 12.7704 77.7728 12.7704C79.2245 12.7704 80.5391 13.0694 81.7086 13.6753C82.878 14.2811 83.7974 15.1467 84.4749 16.2797C85.1524 17.4128 85.4831 18.7268 85.4831 20.2139C85.4831 21.7011 85.1443 23.0151 84.4588 24.1481C83.7733 25.2812 82.8458 26.1467 81.6683 26.7526C80.4907 27.3585 79.1761 27.6575 77.7163 27.6575C76.2565 27.6575 74.958 27.3585 73.7967 26.7526H73.8047ZM79.9504 22.8892C80.5633 22.2676 80.8698 21.3785 80.8698 20.2139C80.8698 19.0494 80.5714 18.1681 79.9826 17.5387C79.3858 16.9171 78.6599 16.6023 77.7889 16.6023C76.9179 16.6023 76.1678 16.9092 75.5791 17.5229C74.9903 18.1367 74.7 19.0337 74.7 20.2061C74.7 21.3785 74.9903 22.2597 75.5629 22.8813C76.1356 23.5029 76.8614 23.8177 77.7325 23.8177C78.6035 23.8177 79.3455 23.5029 79.9504 22.8813V22.8892Z" fill="white"/>
<path d="M87.3376 16.2639C87.9102 15.1387 88.7006 14.2732 89.6926 13.6673C90.6846 13.0615 91.7895 12.7625 93.0154 12.7625C93.9913 12.7625 94.8785 12.9592 95.685 13.3605C96.4915 13.7617 97.1287 14.2968 97.5884 14.9656V8.24597H102.137V27.445H97.5884V25.3677C97.1609 26.0601 96.556 26.6109 95.7657 27.0279C94.9753 27.445 94.0559 27.6495 93.0154 27.6495C91.7895 27.6495 90.6846 27.3427 89.6926 26.7289C88.7006 26.1152 87.9183 25.2418 87.3376 24.1087C86.765 22.9757 86.4746 21.6695 86.4746 20.1745C86.4746 18.6795 86.765 17.3812 87.3376 16.256V16.2639ZM96.6448 17.5858C96.0157 16.9485 95.2495 16.6259 94.3462 16.6259C93.4429 16.6259 92.6767 16.9406 92.0476 17.5701C91.4185 18.1995 91.104 19.0729 91.104 20.1745C91.104 21.2761 91.4185 22.1574 92.0476 22.8104C92.6767 23.4557 93.4429 23.7861 94.3462 23.7861C95.2495 23.7861 96.0157 23.4635 96.6448 22.8262C97.2738 22.1888 97.5884 21.3154 97.5884 20.206C97.5884 19.0965 97.2738 18.2231 96.6448 17.5858Z" fill="white"/>
<path d="M118.816 21.276H108.525C108.597 22.173 108.896 22.8655 109.412 23.3376C109.936 23.8097 110.581 24.0536 111.34 24.0536C112.477 24.0536 113.267 23.5894 113.711 22.653H118.55C118.3 23.6051 117.856 24.4628 117.203 25.2181C116.558 25.9814 115.743 26.5794 114.767 27.0121C113.791 27.4449 112.703 27.6573 111.493 27.6573C110.041 27.6573 108.743 27.3583 107.613 26.7525C106.476 26.1466 105.589 25.2811 104.952 24.1559C104.315 23.0307 103.992 21.7167 103.992 20.2138C103.992 18.7109 104.307 17.3969 104.936 16.2717C105.565 15.1465 106.444 14.281 107.581 13.6751C108.718 13.0693 110.017 12.7703 111.493 12.7703C112.969 12.7703 114.203 13.0614 115.324 13.6515C116.437 14.2417 117.316 15.0757 117.945 16.1694C118.574 17.2553 118.889 18.53 118.889 19.9856C118.889 20.4026 118.864 20.8354 118.808 21.2839L118.816 21.276ZM114.243 18.8132C114.243 18.05 113.977 17.4441 113.445 16.9956C112.912 16.5471 112.251 16.3189 111.452 16.3189C110.654 16.3189 110.049 16.5314 109.525 16.9641C109.001 17.3969 108.678 18.0106 108.557 18.8054H114.251L114.243 18.8132Z" fill="white"/>
<path d="M130.542 27.4527L126.663 20.5757H125.574V27.4527H121.025V9.2373H128.655C130.131 9.2373 131.381 9.48909 132.421 9.99267C133.462 10.4963 134.236 11.1808 134.752 12.0542C135.268 12.9276 135.527 13.9033 135.527 14.9734C135.527 16.1851 135.18 17.2631 134.478 18.2152C133.776 19.1673 132.744 19.844 131.381 20.2374L135.688 27.4527H130.55H130.542ZM125.566 17.4362H128.389C129.22 17.4362 129.849 17.2395 130.26 16.8382C130.679 16.4369 130.889 15.8783 130.889 15.1544C130.889 14.4305 130.679 13.919 130.26 13.5177C129.841 13.1164 129.22 12.9197 128.389 12.9197H125.566V17.4362Z" fill="white"/>
<path d="M137.794 16.2639C138.366 15.1387 139.157 14.2732 140.149 13.6673C141.141 13.0614 142.254 12.849 143.472 12.849H152.593V27.445H148.044V25.3992C147.601 26.0758 146.988 26.6188 146.198 27.0358C145.407 27.4528 144.488 27.6574 143.447 27.6574C142.238 27.6574 141.141 27.3505 140.149 26.7368C139.157 26.1231 138.374 25.2497 137.794 24.1166C137.221 22.9835 136.931 21.6774 136.931 20.1824C136.931 18.6874 137.221 17.3891 137.794 16.2639ZM147.101 17.5858C146.472 16.9485 145.706 16.6258 144.802 16.6258C143.899 16.6258 143.133 16.9406 142.504 17.5701C141.875 18.1995 141.56 19.0729 141.56 20.1745C141.56 21.2761 141.875 22.1574 142.504 22.8104C143.133 23.4557 143.899 23.7861 144.802 23.7861C145.706 23.7861 146.472 23.4635 147.101 22.8262C147.73 22.1888 148.044 21.3154 148.044 20.206C148.044 19.0965 147.73 18.2231 147.101 17.5858Z" fill="white"/>
<path d="M161.747 13.3841C162.545 12.967 163.457 12.7625 164.489 12.7625C165.715 12.7625 166.82 13.0615 167.812 13.6673C168.804 14.2732 169.586 15.1387 170.167 16.2639C170.74 17.3891 171.03 18.6953 171.03 20.1824C171.03 21.6695 170.74 22.9836 170.167 24.1166C169.594 25.2497 168.804 26.1231 167.812 26.7368C166.82 27.3505 165.715 27.6574 164.489 27.6574C163.441 27.6574 162.529 27.4528 161.747 27.0515C160.965 26.6424 160.352 26.1073 159.908 25.4306V27.4528H155.359V8.24597H159.908V15.0207C160.336 14.344 160.949 13.8011 161.747 13.3841ZM165.457 17.5779C164.828 16.9485 164.054 16.6337 163.126 16.6337C162.199 16.6337 161.457 16.9563 160.828 17.5937C160.198 18.231 159.884 19.1044 159.884 20.2139C159.884 21.3233 160.198 22.1967 160.828 22.8341C161.457 23.4714 162.223 23.794 163.126 23.794C164.029 23.794 164.804 23.4714 165.441 22.8183C166.078 22.1731 166.401 21.2918 166.401 20.1824C166.401 19.0729 166.086 18.2074 165.457 17.5779Z" fill="white"/>
<path d="M179.272 13.3841C180.071 12.967 180.982 12.7625 182.015 12.7625C183.24 12.7625 184.345 13.0615 185.337 13.6673C186.329 14.2732 187.112 15.1387 187.692 16.2639C188.265 17.3891 188.555 18.6953 188.555 20.1824C188.555 21.6695 188.265 22.9836 187.692 24.1166C187.12 25.2497 186.329 26.1231 185.337 26.7368C184.345 27.3505 183.24 27.6574 182.015 27.6574C180.966 27.6574 180.055 27.4528 179.272 27.0515C178.49 26.6424 177.877 26.1073 177.434 25.4306V27.4528H172.885V8.24597H177.434V15.0207C177.861 14.344 178.474 13.8011 179.272 13.3841ZM182.982 17.5779C182.353 16.9485 181.579 16.6337 180.652 16.6337C179.724 16.6337 178.982 16.9563 178.353 17.5937C177.724 18.231 177.409 19.1044 177.409 20.2139C177.409 21.3233 177.724 22.1967 178.353 22.8341C178.982 23.4714 179.748 23.794 180.652 23.794C181.555 23.794 182.329 23.4714 182.966 22.8183C183.603 22.1731 183.926 21.2918 183.926 20.1824C183.926 19.0729 183.611 18.2074 182.982 17.5779Z" fill="white"/>
<path d="M190.749 10.7796C190.241 10.3232 189.991 9.75667 189.991 9.07998C189.991 8.4033 190.241 7.81316 190.749 7.3568C191.257 6.90043 191.903 6.67224 192.701 6.67224C193.5 6.67224 194.121 6.90043 194.629 7.3568C195.137 7.81316 195.387 8.38756 195.387 9.07998C195.387 9.77241 195.137 10.3232 194.629 10.7796C194.121 11.2359 193.483 11.4641 192.701 11.4641C191.919 11.4641 191.249 11.2359 190.749 10.7796ZM194.967 12.9749V27.4528H190.419V12.967H194.967V12.9749Z" fill="white"/>
<path d="M206 23.6838V27.4449H203.685C202.04 27.4449 200.75 27.0515 199.83 26.2646C198.911 25.4778 198.451 24.1952 198.451 22.4091V16.6494H196.645V12.967H198.451V9.44189H203V12.967H205.976V16.6494H203V22.4642C203 22.8969 203.105 23.2117 203.322 23.4005C203.532 23.5893 203.887 23.6838 204.387 23.6838H206.008H206Z" fill="white"/>
<path d="M23.7918 31.6153C22.0336 31.0488 20.3318 27.1775 18.2188 27.1775C21.1787 28.9164 19.9205 31.2219 19.6785 31.6153H23.7998H23.7918Z" fill="white"/>
<path d="M36.5996 17.5856C36.2286 8.37956 28.599 0.873075 19.1709 0.448179C8.66197 -0.0160589 0 8.15138 0 18.2938C0 22.1651 1.25816 25.7452 3.40349 28.6644C4.63746 30.3482 6.56503 31.4105 8.6539 31.5836C5.58108 28.1844 8.19419 25.3439 8.19419 25.3439C6.97635 25.9183 6.47631 27.8539 6.47631 27.8539C4.16968 26.4691 4.70198 24.8167 4.70198 24.8167C4.84715 24.4705 5.17782 23.5184 6.95216 23.8646C10.3879 12.8252 21.7033 18.5771 21.7033 18.5771C21.5259 18.2308 20.9371 16.2637 20.9371 16.2637C13.5898 15.2251 11.1057 10.1421 11.1057 10.1421C17.9208 8.11991 22.0662 13.6121 22.0662 13.6121C20.1709 9.10346 15.6141 10.8975 14.4285 3.50113C22.3405 4.78369 23.4857 10.8345 23.647 12.1407C23.7599 11.8889 24.389 11.5505 26.986 11.7C31.0105 11.9282 34.2124 15.9175 34.2124 15.9175C34.2124 24.0063 24.0825 22.0549 24.0825 28.1687C24.0825 29.6007 25.6794 29.5142 26.2117 30.2066C26.6472 30.7731 26.4618 31.4026 26.373 31.6072H27.3328C29.6072 31.6072 31.7686 30.5843 33.1074 28.7903C35.4383 25.6665 36.7609 21.7795 36.5996 17.5778V17.5856Z" fill="white"/>
</g>
<defs>
<clipPath id="clip0_10121_47824">
<rect width="206" height="31.1826" fill="white" transform="translate(0 0.432495)"/>
</clipPath>
</defs>
</svg>
