<svg width="206" height="33" viewBox="0 0 206 33" fill="none" xmlns="http://www.w3.org/2000/svg">
<g clip-path="url(#clip0_6619_4326)">
<path d="M51.6575 13.8313C52.456 12.3876 53.569 11.2585 54.9965 10.452C56.424 9.64544 58.0451 9.24219 59.8517 9.24219C62.0696 9.24219 63.9649 9.83094 65.5457 11.0004C67.1265 12.1698 68.1749 13.7667 68.7072 15.7911H63.7068C63.3358 15.0088 62.8035 14.42 62.1261 14.0087C61.4405 13.5974 60.6663 13.3957 59.7952 13.3957C58.3919 13.3957 57.2628 13.8796 56.3917 14.8555C55.5207 15.8314 55.0852 17.138 55.0852 18.7671C55.0852 20.3963 55.5207 21.7028 56.3917 22.6787C57.2628 23.6546 58.3919 24.1385 59.7952 24.1385C60.6663 24.1385 61.4405 23.9369 62.1261 23.5256C62.8116 23.1142 63.3358 22.5255 63.7068 21.7432H68.7072C68.1749 23.7675 67.1184 25.3564 65.5457 26.5177C63.9649 27.6791 62.0696 28.2598 59.8517 28.2598C58.0451 28.2598 56.424 27.8565 54.9965 27.05C53.569 26.2435 52.456 25.1225 51.6575 23.6869C50.8591 22.2513 50.4639 20.614 50.4639 18.7671C50.4639 16.9202 50.8591 15.2749 51.6575 13.8313Z" fill="#171717"/>
<path d="M73.8042 27.4131C72.6429 26.7921 71.7315 25.9049 71.0621 24.7516C70.4007 23.5983 70.062 22.2514 70.062 20.7109C70.062 19.1705 70.4007 17.8397 71.0702 16.6784C71.7476 15.517 72.6671 14.6298 73.8365 14.0088C75.0059 13.3878 76.3206 13.0813 77.7723 13.0813C79.224 13.0813 80.5386 13.3878 81.7081 14.0088C82.8775 14.6298 83.797 15.517 84.4744 16.6784C85.1519 17.8397 85.4826 19.1866 85.4826 20.7109C85.4826 22.2352 85.1438 23.5821 84.4583 24.7435C83.7728 25.9049 82.8453 26.7921 81.6678 27.4131C80.4902 28.0341 79.1756 28.3406 77.7158 28.3406C76.256 28.3406 74.9576 28.0341 73.7962 27.4131H73.8042ZM79.9499 23.4531C80.5628 22.8159 80.8693 21.9046 80.8693 20.7109C80.8693 19.5173 80.5709 18.614 79.9821 17.9688C79.3853 17.3316 78.6595 17.009 77.7884 17.009C76.9174 17.009 76.1673 17.3236 75.5786 17.9526C74.9898 18.5817 74.6995 19.5012 74.6995 20.7029C74.6995 21.9046 74.9898 22.8079 75.5624 23.445C76.1351 24.0822 76.8609 24.4048 77.732 24.4048C78.603 24.4048 79.345 24.0822 79.9499 23.445V23.4531Z" fill="#171717"/>
<path d="M87.3376 16.6621C87.9102 15.5088 88.7006 14.6216 89.6926 14.0006C90.6846 13.3796 91.7895 13.0731 93.0154 13.0731C93.9913 13.0731 94.8785 13.2747 95.685 13.6861C96.4915 14.0974 97.1287 14.6458 97.5884 15.3314V8.44373H102.137V28.1227H97.5884V25.9935C97.1609 26.7032 96.556 27.2678 95.7657 27.6952C94.9753 28.1227 94.0558 28.3324 93.0154 28.3324C91.7895 28.3324 90.6846 28.0178 89.6926 27.3888C88.7006 26.7597 87.9183 25.8644 87.3376 24.7031C86.765 23.5417 86.4746 22.2029 86.4746 20.6705C86.4746 19.1381 86.765 17.8074 87.3376 16.654V16.6621ZM96.6448 18.0171C96.0157 17.3638 95.2495 17.0331 94.3462 17.0331C93.4429 17.0331 92.6767 17.3557 92.0476 18.0009C91.4185 18.6461 91.104 19.5414 91.104 20.6705C91.104 21.7996 91.4185 22.7029 92.0476 23.3723C92.6767 24.0337 93.4429 24.3724 94.3462 24.3724C95.2495 24.3724 96.0157 24.0417 96.6448 23.3884C97.2738 22.7352 97.5884 21.8399 97.5884 20.7028C97.5884 19.5656 97.2738 18.6703 96.6448 18.0171Z" fill="#171717"/>
<path d="M118.816 21.7996H108.525C108.597 22.719 108.896 23.4288 109.412 23.9127C109.936 24.3966 110.581 24.6466 111.34 24.6466C112.477 24.6466 113.267 24.1708 113.711 23.211H118.55C118.3 24.1869 117.856 25.066 117.203 25.8402C116.558 26.6226 115.743 27.2355 114.767 27.6791C113.791 28.1227 112.703 28.3404 111.493 28.3404C110.041 28.3404 108.743 28.034 107.613 27.4129C106.476 26.7919 105.589 25.9048 104.952 24.7514C104.315 23.5981 103.992 22.2513 103.992 20.7108C103.992 19.1704 104.307 17.8235 104.936 16.6702C105.565 15.5169 106.444 14.6297 107.581 14.0087C108.718 13.3877 110.017 13.0812 111.493 13.0812C112.969 13.0812 114.203 13.3796 115.324 13.9845C116.437 14.5894 117.316 15.4443 117.945 16.5653C118.574 17.6783 118.889 18.9849 118.889 20.4769C118.889 20.9044 118.864 21.348 118.808 21.8077L118.816 21.7996ZM114.243 19.2752C114.243 18.4929 113.977 17.8719 113.445 17.4122C112.912 16.9524 112.251 16.7186 111.452 16.7186C110.654 16.7186 110.049 16.9363 109.525 17.3799C109.001 17.8235 108.678 18.4526 108.557 19.2671H114.251L114.243 19.2752Z" fill="#171717"/>
<path d="M130.543 28.1308L126.663 21.0818H125.575V28.1308H121.026V9.45996H128.656C130.131 9.45996 131.382 9.71805 132.422 10.2342C133.462 10.7504 134.237 11.4521 134.753 12.3473C135.269 13.2425 135.527 14.2426 135.527 15.3395C135.527 16.5815 135.18 17.6864 134.479 18.6623C133.777 19.6382 132.745 20.3318 131.382 20.735L135.688 28.1308H130.551H130.543ZM125.567 17.8638H128.389C129.22 17.8638 129.849 17.6622 130.26 17.2509C130.68 16.8396 130.89 16.2669 130.89 15.525C130.89 14.783 130.68 14.2587 130.26 13.8474C129.841 13.4361 129.22 13.2345 128.389 13.2345H125.567V17.8638Z" fill="#171717"/>
<path d="M137.793 16.6621C138.366 15.5088 139.156 14.6217 140.148 14.0006C141.14 13.3796 142.253 13.1619 143.471 13.1619H152.593V28.1227H148.044V26.0258C147.6 26.7194 146.987 27.2759 146.197 27.7033C145.407 28.1308 144.487 28.3405 143.447 28.3405C142.237 28.3405 141.14 28.0259 140.148 27.3969C139.156 26.7678 138.374 25.8725 137.793 24.7112C137.221 23.5498 136.93 22.211 136.93 20.6786C136.93 19.1462 137.221 17.8155 137.793 16.6621ZM147.1 18.0171C146.471 17.3638 145.705 17.0331 144.802 17.0331C143.898 17.0331 143.132 17.3557 142.503 18.001C141.874 18.6462 141.56 19.5414 141.56 20.6705C141.56 21.7996 141.874 22.7029 142.503 23.3723C143.132 24.0337 143.898 24.3724 144.802 24.3724C145.705 24.3724 146.471 24.0417 147.1 23.3885C147.729 22.7352 148.044 21.84 148.044 20.7028C148.044 19.5656 147.729 18.6704 147.1 18.0171Z" fill="#171717"/>
<path d="M161.747 13.7103C162.545 13.2828 163.457 13.0731 164.489 13.0731C165.715 13.0731 166.82 13.3796 167.812 14.0006C168.804 14.6216 169.586 15.5088 170.167 16.6621C170.74 17.8154 171.03 19.1542 171.03 20.6786C171.03 22.2029 170.74 23.5497 170.167 24.7111C169.594 25.8725 168.804 26.7677 167.812 27.3968C166.82 28.0259 165.715 28.3404 164.489 28.3404C163.441 28.3404 162.529 28.1308 161.747 27.7194C160.965 27.3 160.352 26.7516 159.908 26.058V28.1308H155.359V8.44373H159.908V15.3878C160.336 14.6942 160.949 14.1377 161.747 13.7103ZM165.457 18.009C164.828 17.3638 164.054 17.0412 163.126 17.0412C162.199 17.0412 161.457 17.3718 160.828 18.0251C160.198 18.6784 159.884 19.5736 159.884 20.7108C159.884 21.848 160.198 22.7432 160.828 23.3965C161.457 24.0498 162.223 24.3805 163.126 24.3805C164.029 24.3805 164.804 24.0498 165.441 23.3804C166.078 22.719 166.401 21.8157 166.401 20.6786C166.401 19.5414 166.086 18.6542 165.457 18.009Z" fill="#171717"/>
<path d="M179.272 13.7104C180.071 13.2829 180.982 13.0732 182.015 13.0732C183.24 13.0732 184.345 13.3797 185.337 14.0007C186.329 14.6218 187.112 15.5089 187.692 16.6622C188.265 17.8155 188.555 19.1544 188.555 20.6787C188.555 22.203 188.265 23.5499 187.692 24.7113C187.12 25.8726 186.329 26.7679 185.337 27.3969C184.345 28.026 183.24 28.3406 182.015 28.3406C180.966 28.3406 180.055 28.1309 179.272 27.7196C178.49 27.3002 177.877 26.7517 177.434 26.0581V28.1309H172.885V8.44385H177.434V15.3879C177.861 14.6943 178.474 14.1378 179.272 13.7104ZM182.982 18.0091C182.353 17.3639 181.579 17.0413 180.652 17.0413C179.724 17.0413 178.982 17.372 178.353 18.0252C177.724 18.6785 177.409 19.5738 177.409 20.7109C177.409 21.8481 177.724 22.7434 178.353 23.3966C178.982 24.0499 179.748 24.3806 180.652 24.3806C181.555 24.3806 182.329 24.0499 182.966 23.3805C183.603 22.7192 183.926 21.8159 183.926 20.6787C183.926 19.5415 183.611 18.6543 182.982 18.0091Z" fill="#171717"/>
<path d="M190.749 11.0407C190.241 10.5729 189.991 9.99223 189.991 9.29862C189.991 8.60502 190.241 8.00014 190.749 7.53236C191.257 7.06458 191.902 6.83069 192.701 6.83069C193.499 6.83069 194.12 7.06458 194.628 7.53236C195.136 8.00014 195.386 8.58889 195.386 9.29862C195.386 10.0084 195.136 10.5729 194.628 11.0407C194.12 11.5085 193.483 11.7424 192.701 11.7424C191.918 11.7424 191.249 11.5085 190.749 11.0407ZM194.967 13.2909V28.1307H190.418V13.2828H194.967V13.2909Z" fill="#171717"/>
<path d="M206.001 24.2676V28.1227H203.686C202.041 28.1227 200.75 27.7195 199.831 26.913C198.911 26.1065 198.452 24.7918 198.452 22.961V17.0574H196.645V13.2829H198.452V9.66968H203V13.2829H205.976V17.0574H203V23.0175C203 23.4611 203.105 23.7837 203.323 23.9773C203.533 24.1708 203.888 24.2676 204.388 24.2676H206.009H206.001Z" fill="#171717"/>
<path d="M23.7923 32.3973C22.0341 31.8166 20.3323 27.8485 18.2192 27.8485C21.1791 29.6309 19.921 31.994 19.679 32.3973H23.8003H23.7923Z" fill="#FF570A"/>
<path d="M36.5996 18.017C36.2286 8.58076 28.599 0.88661 19.1709 0.451092C8.66197 -0.024752 0 8.34687 0 18.7428C0 22.7109 1.25816 26.3805 3.40349 29.3727C4.63746 31.0987 6.56503 32.1875 8.6539 32.3649C5.58108 28.8807 8.19419 25.9692 8.19419 25.9692C6.97635 26.558 6.47631 28.542 6.47631 28.542C4.16968 27.1225 4.70198 25.4289 4.70198 25.4289C4.84715 25.074 5.17782 24.0981 6.95216 24.453C10.3879 13.1376 21.7033 19.0332 21.7033 19.0332C21.5259 18.6783 20.9371 16.662 20.9371 16.662C13.5898 15.5974 11.1057 10.3874 11.1057 10.3874C17.9208 8.31461 22.0662 13.9441 22.0662 13.9441C20.1709 9.32275 15.6141 11.1616 14.4285 3.58037C22.3405 4.89499 23.4857 11.0971 23.647 12.4359C23.7599 12.1778 24.389 11.831 26.986 11.9843C31.0105 12.2181 34.2124 16.3072 34.2124 16.3072C34.2124 24.5981 24.0825 22.598 24.0825 28.8646C24.0825 30.3325 25.6794 30.2438 26.2117 30.9535C26.6472 31.5342 26.4618 32.1794 26.373 32.3891H27.3328C29.6072 32.3891 31.7686 31.3406 33.1074 29.5018C35.4383 26.2999 36.7609 22.3157 36.5996 18.0089V18.017Z" fill="#FF570A"/>
</g>
<defs>
<clipPath id="clip0_6619_4326">
<rect width="206" height="31.9622" fill="white" transform="translate(0 0.434937)"/>
</clipPath>
</defs>
</svg>
