<svg xmlns="http://www.w3.org/2000/svg" id="Layer_1" version="1.1" viewBox="0 0 195.1 79.9">
  <!-- Generator: Adobe Illustrator 29.0.1, SVG Export Plug-In . SVG Version: 2.1.0 Build 192)  -->
  <defs fill="#000000">
    <style>
      .st0 {
        fill: #000000;
      }
    </style>
  </defs>
  <path class="st0" d="M0,0v60.7h173.1l22,19.2V0H0ZM46.7,37.3c-.5.9-1.1,1.6-1.9,2.1-.8.5-1.7.9-2.7,1.2-1,.2-2.1.4-3.2.4-1.7,0-3.4-.3-5.1-.8-1.7-.5-3.2-1.2-4.5-2.2l2-3.8c.2.2.5.4,1,.8.5.3,1.1.6,1.8.9.7.3,1.4.6,2.3.8.8.2,1.7.3,2.6.3,2.4,0,3.6-.8,3.6-2.3s-.1-.9-.4-1.2c-.3-.3-.7-.6-1.2-.9-.5-.3-1.1-.5-1.9-.7-.7-.2-1.5-.4-2.4-.7-1.1-.3-2-.6-2.8-1-.8-.4-1.5-.8-2-1.2s-.9-1-1.2-1.7c-.3-.6-.4-1.4-.4-2.3s.2-2.2.6-3.1,1-1.6,1.8-2.2c.8-.6,1.6-1.1,2.6-1.4,1-.3,2.1-.5,3.2-.5s3.1.3,4.4.8c1.3.5,2.5,1.1,3.5,1.8l-2,3.6c-.1-.1-.4-.4-.8-.6-.4-.3-.9-.5-1.4-.8-.6-.2-1.2-.5-1.8-.6-.7-.2-1.3-.3-2-.3-1.2,0-2.1.2-2.7.7-.6.4-.9,1.1-.9,1.9s.1.9.3,1.2.5.6,1,.8,1,.4,1.6.6c.7.2,1.4.4,2.3.6,1.1.3,2.1.6,3,1,.9.3,1.7.8,2.3,1.3.6.5,1.1,1.1,1.5,1.8.3.7.5,1.6.5,2.6s-.2,2.3-.7,3.1ZM66.8,40.6c-.4,0-.8.1-1.1.2-.3,0-.5,0-.8,0-.8,0-1.4-.2-1.9-.5-.5-.4-.8-.8-.8-1.5v-1.3c-.8,1.2-1.8,2-3,2.6-1.2.6-2.5.9-3.9.9s-3-.6-3.9-1.7c-.9-1.1-1.3-2.8-1.3-4.9v-10.5h4.3v9.6c0,2.6.9,3.9,2.8,3.9s1.6-.3,2.4-.8c.8-.5,1.4-1.3,1.9-2.3v-10.4h4.3v11.8c0,.4,0,.8.2,1,.2.2.4.3.8.3v3.6ZM80,27.6c-1.3,0-2.5.3-3.5.8-1,.5-1.8,1.2-2.2,2.2v10.1h-4.3v-16.8h3.9v3.6c.3-.6.7-1.1,1.1-1.6.4-.5.8-.9,1.3-1.2.5-.3.9-.6,1.4-.8.5-.2.9-.3,1.4-.3h.5c.1,0,.2,0,.3,0v3.9ZM91.6,40.6h-4.6l-6.2-16.8h4.4l4.3,13.3,4.3-13.3h4l-6.2,16.8ZM115.9,33c0,.3,0,.5,0,.6h-13c0,.7.2,1.2.5,1.8.3.5.6.9,1,1.3.4.4.9.6,1.4.8.5.2,1,.3,1.6.3.9,0,1.7-.2,2.4-.6.8-.4,1.3-1,1.6-1.6l3.7,1c-.6,1.3-1.6,2.3-3,3.2-1.4.8-3,1.2-4.8,1.2s-2.6-.2-3.6-.7-2-1.1-2.8-1.9c-.8-.8-1.4-1.7-1.8-2.8-.4-1-.6-2.1-.6-3.3s.2-2.3.6-3.4,1-2,1.8-2.8c.8-.8,1.7-1.4,2.8-1.9,1.1-.5,2.3-.7,3.7-.7s2.6.2,3.7.7c1.1.5,2,1.1,2.8,1.9.8.8,1.3,1.7,1.7,2.8.4,1,.6,2.1.6,3.3s0,.5,0,.8ZM124.3,46.8c-1,.7-2.2,1.1-3.6,1.1s-.7,0-1,0c-.4,0-.7-.1-1.1-.3v-3.7c.4.1.7.2,1.1.2.3,0,.6,0,.9,0s.5,0,.8-.2c.2-.1.4-.3.6-.6.2-.3.4-.6.6-1.1.2-.5.4-1.1.6-1.8l-6.6-16.8h4.4l4.5,13.1,4-13.1h4l-7,20.1c-.4,1.2-1.1,2.1-2.1,2.9ZM144.9,29.5c0,1.7,0,3.3-.3,4.7-.2,1.4-.6,2.6-1.2,3.6-.6,1-1.4,1.8-2.5,2.3s-2.6.8-4.5.8-3.6-.5-4.9-1.4l1-3.6c.3.2.8.4,1.5.7.7.3,1.5.4,2.4.4s1.6-.2,2.1-.5c.5-.3.9-.8,1.2-1.4s.5-1.4.5-2.4c0-.9.1-2.1.1-3.3v-11.6h4.4v11.6ZM165,37.3c-.5.9-1.1,1.6-1.9,2.1-.8.5-1.7.9-2.7,1.2-1,.2-2.1.4-3.2.4-1.7,0-3.4-.3-5.1-.8-1.7-.5-3.2-1.2-4.5-2.2l2-3.8c.2.2.5.4,1,.8.5.3,1.1.6,1.8.9.7.3,1.4.6,2.3.8.8.2,1.7.3,2.6.3,2.4,0,3.6-.8,3.6-2.3s-.1-.9-.4-1.2-.7-.6-1.2-.9c-.5-.3-1.1-.5-1.9-.7-.7-.2-1.5-.4-2.4-.7-1.1-.3-2-.6-2.8-1-.8-.4-1.5-.8-2-1.2-.5-.5-.9-1-1.2-1.7-.3-.6-.4-1.4-.4-2.3s.2-2.2.6-3.1c.4-.9,1-1.6,1.8-2.2.8-.6,1.6-1.1,2.6-1.4,1-.3,2.1-.5,3.2-.5s3.1.3,4.4.8c1.3.5,2.5,1.1,3.5,1.8l-2,3.6c-.1-.1-.4-.4-.8-.6s-.9-.5-1.4-.8c-.6-.2-1.2-.5-1.8-.6-.7-.2-1.3-.3-2-.3-1.2,0-2.1.2-2.7.7-.6.4-.9,1.1-.9,1.9s.1.9.3,1.2c.2.3.5.6,1,.8.4.2,1,.4,1.6.6.7.2,1.4.4,2.3.6,1.1.3,2.1.6,3,1,.9.3,1.7.8,2.3,1.3.6.5,1.1,1.1,1.5,1.8.3.7.5,1.6.5,2.6s-.2,2.3-.7,3.1ZM110.2,27.8c.8.8,1.3,1.8,1.4,3h-8.7c0-.6.2-1.2.4-1.7.2-.5.6-.9.9-1.3s.8-.6,1.3-.8c.5-.2,1-.3,1.6-.3,1.2,0,2.2.4,3,1.1Z" fill="#000000"/>
</svg>