<svg width="196" height="80" viewBox="0 0 196 80" fill="none" xmlns="http://www.w3.org/2000/svg">
<g clip-path="url(#clip0_28980_64204)">
<path d="M0 0V60.66H173.12L195.1 79.89V0H0ZM46.67 37.26C46.21 38.12 45.59 38.82 44.81 39.36C44.03 39.89 43.14 40.28 42.12 40.53C41.11 40.77 40.04 40.9 38.94 40.9C37.23 40.9 35.55 40.64 33.88 40.13C32.22 39.62 30.72 38.89 29.4 37.95L31.35 34.14C31.54 34.33 31.89 34.58 32.39 34.89C32.89 35.2 33.48 35.51 34.17 35.82C34.85 36.13 35.61 36.39 36.44 36.6C37.27 36.81 38.12 36.92 39 36.92C41.43 36.92 42.65 36.14 42.65 34.58C42.65 34.09 42.51 33.67 42.23 33.33C41.95 32.99 41.56 32.69 41.05 32.43C40.54 32.17 39.92 31.94 39.19 31.73C38.46 31.52 37.65 31.28 36.76 31.03C35.67 30.73 34.73 30.41 33.93 30.05C33.13 29.7 32.46 29.28 31.93 28.8C31.4 28.32 31 27.77 30.73 27.14C30.46 26.51 30.33 25.76 30.33 24.88C30.33 23.73 30.54 22.7 30.97 21.81C31.4 20.92 31.99 20.17 32.75 19.57C33.51 18.97 34.39 18.52 35.39 18.21C36.39 17.9 37.47 17.75 38.62 17.75C40.22 17.75 41.69 18 43.04 18.5C44.38 19 45.56 19.59 46.56 20.28L44.61 23.86C44.46 23.71 44.19 23.51 43.79 23.25C43.39 22.99 42.91 22.74 42.35 22.5C41.78 22.25 41.17 22.05 40.51 21.88C39.85 21.71 39.18 21.62 38.49 21.62C37.27 21.62 36.37 21.84 35.77 22.29C35.17 22.74 34.87 23.37 34.87 24.18C34.87 24.65 34.98 25.04 35.21 25.35C35.44 25.66 35.76 25.93 36.19 26.17C36.62 26.41 37.16 26.62 37.81 26.81C38.46 27 39.21 27.21 40.07 27.42C41.18 27.72 42.19 28.04 43.09 28.38C44 28.72 44.76 29.15 45.39 29.66C46.02 30.17 46.51 30.79 46.85 31.5C47.19 32.22 47.36 33.1 47.36 34.14C47.36 35.36 47.13 36.4 46.67 37.26ZM66.81 40.64C66.38 40.72 66.03 40.78 65.74 40.8C65.45 40.82 65.19 40.83 64.96 40.83C64.19 40.83 63.57 40.65 63.09 40.3C62.61 39.95 62.33 39.46 62.24 38.84L62.14 37.5C61.39 38.65 60.43 39.52 59.26 40.09C58.09 40.67 56.8 40.95 55.39 40.95C53.66 40.95 52.35 40.4 51.45 39.29C50.55 38.18 50.11 36.54 50.11 34.36V23.86H54.4V33.43C54.4 36.01 55.33 37.3 57.18 37.3C58.01 37.3 58.82 37.05 59.6 36.55C60.38 36.05 61.01 35.29 61.5 34.26V23.86H65.79V35.7C65.79 36.15 65.87 36.47 66.03 36.66C66.19 36.85 66.45 36.96 66.81 36.98V40.63V40.64ZM80.03 27.58C78.73 27.6 77.57 27.85 76.54 28.33C75.52 28.81 74.78 29.53 74.33 30.49V40.63H70.04V23.86H73.98V27.44C74.28 26.86 74.63 26.35 75.04 25.89C75.45 25.43 75.88 25.03 76.35 24.69C76.82 24.35 77.29 24.09 77.77 23.91C78.25 23.73 78.71 23.64 79.16 23.64H79.69C79.81 23.64 79.92 23.65 80.03 23.67V27.57V27.58ZM91.58 40.64H86.94L80.76 23.87H85.18L89.44 37.15L93.73 23.87H97.76L91.58 40.64V40.64ZM115.95 32.99C115.94 33.25 115.91 33.46 115.87 33.63H102.91C102.97 34.29 103.13 34.88 103.39 35.39C103.65 35.9 103.98 36.34 104.38 36.7C104.78 37.06 105.24 37.34 105.76 37.53C106.27 37.72 106.8 37.82 107.36 37.82C108.21 37.82 109.02 37.61 109.78 37.2C110.54 36.78 111.05 36.24 111.33 35.55L115.01 36.57C114.39 37.85 113.4 38.9 112.05 39.72C110.69 40.54 109.08 40.95 107.2 40.95C105.86 40.95 104.64 40.72 103.55 40.26C102.46 39.8 101.53 39.18 100.77 38.39C100 37.6 99.41 36.68 98.99 35.64C98.57 34.6 98.37 33.5 98.37 32.34C98.37 31.18 98.57 30.02 98.98 28.96C99.39 27.9 99.97 26.98 100.74 26.18C101.51 25.38 102.44 24.75 103.54 24.28C104.64 23.81 105.87 23.58 107.24 23.58C108.61 23.58 109.83 23.82 110.9 24.28C111.98 24.75 112.89 25.38 113.65 26.17C114.41 26.96 114.98 27.88 115.38 28.92C115.77 29.97 115.97 31.05 115.97 32.18C115.97 32.46 115.97 32.72 115.95 32.98V32.99ZM124.29 46.85C123.31 47.6 122.09 47.97 120.64 47.97C120.3 47.97 119.95 47.94 119.6 47.89C119.25 47.84 118.88 47.75 118.5 47.62V43.91C118.86 44.02 119.21 44.1 119.56 44.15C119.9 44.2 120.19 44.23 120.42 44.23C120.7 44.23 120.95 44.18 121.19 44.07C121.42 43.96 121.64 43.78 121.83 43.51C122.02 43.24 122.21 42.88 122.41 42.41C122.6 41.94 122.8 41.35 123.02 40.65L116.4 23.88H120.82L125.36 36.94L129.39 23.88H133.42L126.38 43.98C125.97 45.15 125.28 46.11 124.3 46.86L124.29 46.85ZM144.93 29.47C144.93 31.2 144.84 32.77 144.66 34.19C144.48 35.61 144.1 36.82 143.51 37.82C142.92 38.82 142.08 39.6 140.97 40.16C139.86 40.72 138.37 40.99 136.49 40.99C134.61 40.99 132.93 40.52 131.56 39.58L132.55 36C132.85 36.21 133.35 36.45 134.05 36.7C134.75 36.96 135.56 37.08 136.48 37.08C137.4 37.08 138.09 36.93 138.62 36.62C139.15 36.31 139.56 35.84 139.83 35.2C140.1 34.56 140.29 33.77 140.37 32.82C140.45 31.87 140.5 30.76 140.5 29.48V17.93H144.92V29.48L144.93 29.47ZM165.01 37.26C164.55 38.12 163.93 38.82 163.15 39.36C162.37 39.89 161.47 40.28 160.46 40.53C159.45 40.77 158.38 40.9 157.28 40.9C155.57 40.9 153.89 40.64 152.22 40.13C150.56 39.62 149.06 38.89 147.74 37.95L149.69 34.14C149.88 34.33 150.23 34.58 150.73 34.89C151.23 35.2 151.82 35.51 152.51 35.82C153.19 36.13 153.95 36.39 154.78 36.6C155.61 36.81 156.46 36.92 157.34 36.92C159.77 36.92 160.99 36.14 160.99 34.58C160.99 34.09 160.85 33.67 160.57 33.33C160.29 32.99 159.9 32.69 159.39 32.43C158.88 32.17 158.26 31.94 157.53 31.73C156.8 31.52 155.99 31.28 155.1 31.03C154.01 30.73 153.07 30.41 152.27 30.05C151.47 29.7 150.8 29.28 150.27 28.8C149.74 28.32 149.34 27.77 149.07 27.14C148.8 26.51 148.67 25.76 148.67 24.88C148.67 23.73 148.88 22.7 149.31 21.81C149.74 20.91 150.33 20.17 151.09 19.57C151.85 18.97 152.73 18.52 153.73 18.21C154.73 17.9 155.81 17.75 156.96 17.75C158.56 17.75 160.03 18 161.38 18.5C162.72 19 163.9 19.59 164.9 20.28L162.95 23.86C162.8 23.71 162.53 23.51 162.13 23.25C161.73 22.99 161.25 22.74 160.69 22.5C160.12 22.25 159.51 22.05 158.85 21.88C158.19 21.71 157.52 21.62 156.83 21.62C155.61 21.62 154.71 21.84 154.11 22.29C153.51 22.74 153.21 23.37 153.21 24.18C153.21 24.65 153.32 25.04 153.55 25.35C153.77 25.66 154.1 25.93 154.53 26.17C154.96 26.4 155.49 26.62 156.15 26.81C156.8 27 157.55 27.21 158.41 27.42C159.52 27.72 160.53 28.04 161.43 28.38C162.34 28.72 163.1 29.15 163.73 29.66C164.36 30.17 164.84 30.79 165.19 31.5C165.53 32.22 165.7 33.1 165.7 34.14C165.7 35.36 165.47 36.4 165.01 37.26V37.26ZM110.16 27.82C110.98 28.58 111.45 29.59 111.55 30.84H102.85C102.89 30.22 103.04 29.66 103.28 29.14C103.53 28.63 103.84 28.19 104.22 27.83C104.6 27.47 105.05 27.18 105.55 26.98C106.05 26.78 106.59 26.68 107.17 26.68C108.34 26.68 109.34 27.06 110.16 27.82Z" fill="#19B394"/>
<path d="M125.36 36.9404L129.39 23.8799H133.42L126.38 43.9805C125.97 45.1503 125.28 46.1104 124.3 46.8604L124.29 46.8496C123.31 47.5996 122.09 47.9697 120.64 47.9697C120.3 47.9697 119.95 47.9396 119.6 47.8896C119.25 47.8396 118.88 47.7501 118.5 47.6201V43.9102C118.86 44.0201 119.21 44.1004 119.56 44.1504C119.9 44.2004 120.19 44.2305 120.42 44.2305C120.7 44.2305 120.95 44.1802 121.189 44.0703C121.419 43.9603 121.64 43.7798 121.83 43.5098C122.02 43.2398 122.21 42.88 122.41 42.4102C122.6 41.9403 122.8 41.3502 123.02 40.6504L116.4 23.8799H120.82L125.36 36.9404ZM144.92 29.4805L144.93 29.4697C144.93 31.1997 144.84 32.7704 144.66 34.1904C144.48 35.6103 144.1 36.8204 143.51 37.8203C142.92 38.8202 142.08 39.6002 140.97 40.1602C139.86 40.7201 138.37 40.9902 136.49 40.9902C134.61 40.9902 132.93 40.5201 131.56 39.5801L132.55 36C132.85 36.21 133.35 36.4502 134.05 36.7002C134.75 36.9602 135.56 37.08 136.479 37.0801C137.399 37.0801 138.09 36.9301 138.62 36.6201C139.15 36.3101 139.56 35.8401 139.83 35.2002C140.1 34.5603 140.29 33.7702 140.37 32.8203C140.45 31.8704 140.5 30.7603 140.5 29.4805V17.9297H144.92V29.4805ZM54.4004 33.4297C54.4004 36.0096 55.3298 37.2997 57.1797 37.2998C58.0096 37.2998 58.8196 37.0498 59.5996 36.5498C60.3796 36.0498 61.01 35.2898 61.5 34.2598V23.8604H65.79V35.7002C65.7901 36.1501 65.8703 36.4702 66.0303 36.6602C66.1902 36.8499 66.4499 36.9604 66.8096 36.9805V40.6396C66.3799 40.7196 66.0301 40.7798 65.7402 40.7998C65.4503 40.8198 65.1899 40.8301 64.96 40.8301C64.19 40.8301 63.5698 40.6498 63.0898 40.2998C62.6099 39.9498 62.3302 39.4598 62.2402 38.8398L62.1396 37.5C61.3897 38.6499 60.4297 39.5199 59.2598 40.0898C58.0898 40.6698 56.7996 40.9502 55.3896 40.9502C53.6599 40.9501 52.3501 40.3999 51.4502 39.29C50.5502 38.1801 50.1104 36.5402 50.1104 34.3604V23.8604H54.4004V33.4297ZM107.24 23.5801C108.61 23.5801 109.83 23.8203 110.9 24.2803C111.98 24.7502 112.891 25.38 113.65 26.1699C114.41 26.9599 114.98 27.88 115.38 28.9199C115.77 29.9698 115.97 31.0498 115.97 32.1797C115.97 32.4597 115.97 32.7205 115.95 32.9805V32.9902C115.94 33.2501 115.91 33.46 115.87 33.6299H102.91C102.97 34.2897 103.13 34.8797 103.39 35.3896C103.65 35.8996 103.98 36.3402 104.38 36.7002C104.78 37.0601 105.24 37.3403 105.76 37.5303C106.27 37.7203 106.8 37.8203 107.36 37.8203C108.21 37.8202 109.02 37.6101 109.78 37.2002C110.54 36.7802 111.05 36.2397 111.33 35.5498L115.01 36.5703C114.39 37.8502 113.4 38.8998 112.05 39.7197C110.69 40.5397 109.08 40.9502 107.2 40.9502C105.86 40.9502 104.64 40.7198 103.55 40.2598C102.46 39.7998 101.529 39.1796 100.77 38.3896C99.9997 37.5997 99.4102 36.6795 98.9902 35.6396C98.5703 34.5997 98.3701 33.4998 98.3701 32.3398C98.3701 31.1799 98.5695 30.0199 98.9795 28.96C99.3895 27.9 99.9702 26.9797 100.74 26.1797C101.51 25.3798 102.44 24.7502 103.54 24.2803C104.64 23.8103 105.87 23.5801 107.24 23.5801ZM38.6201 17.75C40.22 17.75 41.6901 18 43.04 18.5C44.3799 19 45.5596 19.5903 46.5596 20.2803L44.6104 23.8604C44.4604 23.7104 44.19 23.51 43.79 23.25C43.39 22.99 42.9096 22.74 42.3496 22.5C41.7797 22.2501 41.1697 22.0499 40.5098 21.8799C39.8499 21.7099 39.1801 21.6201 38.4902 21.6201C37.2702 21.6201 36.3695 21.84 35.7695 22.29C35.1698 22.74 34.8702 23.37 34.8701 24.1797C34.8701 24.6496 34.9801 25.0396 35.21 25.3496C35.4399 25.6595 35.7596 25.93 36.1895 26.1699C36.6194 26.4099 37.1598 26.6196 37.8096 26.8096C38.4596 26.9996 39.2103 27.2099 40.0703 27.4199C41.1801 27.7199 42.19 28.0399 43.0898 28.3799C43.9998 28.7199 44.7597 29.1502 45.3896 29.6602C46.0196 30.1701 46.5096 30.79 46.8496 31.5C47.1896 32.2199 47.3603 33.0998 47.3604 34.1396C47.3604 35.3596 47.1299 36.3998 46.6699 37.2598C46.2099 38.1198 45.5896 38.8204 44.8096 39.3604C44.0297 39.8902 43.1399 40.2803 42.1201 40.5303C41.1101 40.7703 40.0395 40.9004 38.9395 40.9004C37.2296 40.9003 35.5497 40.6398 33.8799 40.1299C32.2199 39.6199 30.7194 38.8902 29.3994 37.9502L31.3496 34.1396C31.5396 34.3296 31.8898 34.5797 32.3896 34.8896C32.8896 35.1996 33.4799 35.5103 34.1699 35.8203C34.8497 36.1302 35.6097 36.3896 36.4395 36.5996C37.2695 36.8096 38.12 36.9199 39 36.9199C41.4299 36.9199 42.6504 36.14 42.6504 34.5801C42.6504 34.0901 42.5095 33.6701 42.2295 33.3301C41.9495 32.9901 41.5597 32.6896 41.0498 32.4297C40.5398 32.1697 39.9194 31.9404 39.1895 31.7305C38.4595 31.5205 37.6496 31.2802 36.7598 31.0303C35.6698 30.7303 34.7297 30.4098 33.9297 30.0498C33.1298 29.6998 32.4596 29.2798 31.9297 28.7998C31.3998 28.3199 30.9995 27.7696 30.7295 27.1396C30.4596 26.5097 30.3301 25.7597 30.3301 24.8799C30.3301 23.7299 30.5397 22.6995 30.9697 21.8096C31.3997 20.9197 31.9901 20.1702 32.75 19.5703C33.5099 18.9704 34.3897 18.52 35.3896 18.21C36.3896 17.9 37.4701 17.75 38.6201 17.75ZM156.96 17.75C158.56 17.75 160.03 18 161.38 18.5C162.72 19 163.9 19.5903 164.9 20.2803L162.95 23.8604C162.8 23.7104 162.53 23.51 162.13 23.25C161.73 22.99 161.249 22.74 160.689 22.5C160.12 22.2501 159.509 22.0498 158.85 21.8799C158.19 21.7099 157.52 21.6201 156.83 21.6201C155.61 21.6201 154.71 21.8402 154.11 22.29C153.51 22.74 153.21 23.3698 153.21 24.1797C153.21 24.6495 153.32 25.0397 153.55 25.3496C153.77 25.6596 154.1 25.9299 154.53 26.1699C154.96 26.3998 155.49 26.6196 156.149 26.8096C156.799 26.9996 157.55 27.2099 158.41 27.4199C159.52 27.7199 160.53 28.0399 161.43 28.3799C162.34 28.7199 163.1 29.1502 163.729 29.6602C164.359 30.1701 164.839 30.7901 165.189 31.5C165.529 32.2199 165.7 33.0998 165.7 34.1396C165.7 35.3596 165.47 36.3998 165.01 37.2598C164.55 38.1197 163.93 38.8204 163.15 39.3604C162.37 39.8904 161.47 40.2803 160.46 40.5303C159.45 40.7702 158.38 40.9004 157.28 40.9004C155.57 40.9004 153.89 40.6399 152.22 40.1299C150.56 39.6199 149.06 38.8901 147.74 37.9502L149.689 34.1396C149.879 34.3296 150.23 34.5798 150.729 34.8896C151.229 35.1996 151.82 35.5103 152.51 35.8203C153.19 36.1303 153.95 36.3896 154.78 36.5996C155.61 36.8096 156.46 36.9199 157.34 36.9199C159.77 36.9199 160.99 36.14 160.99 34.5801C160.99 34.0902 160.85 33.67 160.57 33.3301C160.29 32.9901 159.9 32.6897 159.39 32.4297C158.88 32.1698 158.26 31.9404 157.53 31.7305C156.8 31.5205 155.99 31.2803 155.1 31.0303C154.01 30.7303 153.069 30.4098 152.27 30.0498C151.47 29.6998 150.799 29.2797 150.27 28.7998C149.74 28.3199 149.34 27.7695 149.07 27.1396C148.8 26.5097 148.67 25.7598 148.67 24.8799C148.67 23.7299 148.88 22.6995 149.31 21.8096C149.74 20.9097 150.33 20.1702 151.09 19.5703C151.85 18.9704 152.73 18.52 153.729 18.21C154.729 17.9 155.81 17.75 156.96 17.75ZM89.4395 37.1504L93.7295 23.8701H97.7598L91.5801 40.6396H86.9395L80.7598 23.8701H85.1797L89.4395 37.1504ZM79.6895 23.6396C79.8095 23.6396 79.9203 23.6499 80.0303 23.6699V27.5801C78.7303 27.6001 77.57 27.8501 76.54 28.3301C75.52 28.8101 74.7801 29.5302 74.3301 30.4902V40.6299H70.04V23.8604H73.9795V27.4404C74.2795 26.8604 74.63 26.3496 75.04 25.8896C75.4499 25.4299 75.8799 25.0303 76.3496 24.6904C76.8195 24.3505 77.2897 24.0902 77.7695 23.9102C78.2495 23.7302 78.7102 23.6396 79.1602 23.6396H79.6895ZM107.17 26.6797C106.735 26.6797 106.323 26.7362 105.933 26.8486C105.803 26.8862 105.675 26.9304 105.55 26.9805C105.487 27.0055 105.425 27.0317 105.364 27.0596C105.243 27.115 105.124 27.1761 105.01 27.2422C104.722 27.4076 104.457 27.6051 104.22 27.8301C103.84 28.19 103.53 28.6299 103.28 29.1396C103.04 29.6596 102.89 30.2199 102.85 30.8398H111.55C111.45 29.5901 110.98 28.5802 110.16 27.8203C109.34 27.0603 108.34 26.6797 107.17 26.6797Z" fill="white"/>
</g>
<defs>
<clipPath id="clip0_28980_64204">
<rect width="196" height="80" fill="white"/>
</clipPath>
</defs>
</svg>
