<svg width="21" height="14" viewBox="0 0 21 14" fill="none" xmlns="http://www.w3.org/2000/svg">
<path d="M6.146 12.168C5.38067 12.168 4.66667 12.0327 4.004 11.762C3.34133 11.4913 2.76267 11.1133 2.268 10.628C1.77333 10.1427 1.386 9.57333 1.106 8.92C0.835333 8.25733 0.7 7.54333 0.7 6.778C0.7 6.00333 0.835333 5.28933 1.106 4.636C1.37667 3.98267 1.75933 3.41333 2.254 2.928C2.74867 2.44267 3.32733 2.06933 3.99 1.808C4.65267 1.53733 5.37133 1.402 6.146 1.402C6.92067 1.402 7.63933 1.53733 8.302 1.808C8.96467 2.07867 9.54333 2.45667 10.038 2.942C10.5327 3.418 10.9153 3.98267 11.186 4.636C11.466 5.28933 11.606 6.00333 11.606 6.778C11.606 7.54333 11.466 8.25733 11.186 8.92C10.906 9.57333 10.5187 10.1427 10.024 10.628C9.52933 11.1133 8.95067 11.4913 8.288 11.762C7.63467 12.0327 6.92067 12.168 6.146 12.168ZM6.146 10.432C6.65933 10.432 7.13067 10.3433 7.56 10.166C7.98933 9.97933 8.36267 9.72267 8.68 9.396C9.00667 9.06933 9.254 8.682 9.422 8.234C9.59933 7.786 9.688 7.30067 9.688 6.778C9.688 6.25533 9.59933 5.77467 9.422 5.336C9.254 4.888 9.00667 4.50067 8.68 4.174C8.36267 3.838 7.98933 3.58133 7.56 3.404C7.13067 3.22667 6.65933 3.138 6.146 3.138C5.642 3.138 5.17533 3.22667 4.746 3.404C4.31667 3.58133 3.93867 3.838 3.612 4.174C3.29467 4.50067 3.04733 4.888 2.87 5.336C2.69267 5.77467 2.604 6.25533 2.604 6.778C2.604 7.30067 2.69267 7.786 2.87 8.234C3.04733 8.682 3.29467 9.06933 3.612 9.396C3.93867 9.72267 4.31667 9.97933 4.746 10.166C5.17533 10.3433 5.642 10.432 6.146 10.432ZM8.554 13.26L5.306 7.828H7.294L10.584 13.26H8.554ZM12.0642 7L15.1386 0.741999H16.365L17.6922 7H16.6674L16.3902 5.5972H13.8534L13.173 7H12.0642ZM14.265 4.7152H16.2138L15.5586 1.4476L15.8358 1.4812L14.265 4.7152ZM18.695 7L19.5686 0.741999H20.5514L19.6778 7H18.695Z" fill="white"/>
</svg>
