<svg width="90" height="100" viewBox="0 0 90 100" fill="none" xmlns="http://www.w3.org/2000/svg">
<circle cx="42" cy="20" r="19.5" stroke="#718096"/>
<g filter="url(#filter0_d_91_1078)">
<path d="M42 19.2255C41.099 19.2255 40.3577 18.9331 39.7762 18.3485C39.1946 17.7638 38.9039 17.0186 38.9039 16.1127C38.9039 15.2009 39.1946 14.4541 39.7762 13.8725C40.3577 13.2908 41.099 13 42 13C42.901 13 43.6423 13.2908 44.2238 13.8725C44.8054 14.4541 45.0961 15.2009 45.0961 16.1127C45.0961 17.0186 44.8054 17.7638 44.2238 18.3485C43.6423 18.9331 42.901 19.2255 42 19.2255ZM36.0769 26.3857C35.7778 26.3857 35.5235 26.2804 35.3141 26.0699C35.1047 25.8594 35 25.6038 35 25.303V24.6047C35 24.1007 35.1328 23.6616 35.3985 23.2874C35.6641 22.9133 36.0093 22.6258 36.4341 22.4249C37.4165 21.9858 38.3636 21.655 39.2754 21.4324C40.1872 21.2099 41.0954 21.0986 42 21.0986C42.9046 21.0986 43.8104 21.2123 44.7174 21.4396C45.6244 21.667 46.5691 21.9954 47.5515 22.4249C47.9859 22.6258 48.3359 22.9133 48.6015 23.2874C48.8672 23.6616 49 24.1007 49 24.6047V25.303C49 25.6038 48.8953 25.8594 48.6859 26.0699C48.4765 26.2804 48.2222 26.3857 47.9231 26.3857H36.0769Z" fill="#718097"/>
</g>
<defs>
<filter id="filter0_d_91_1078" x="-5.95" y="4.55" width="95.9" height="95.2857" filterUnits="userSpaceOnUse" color-interpolation-filters="sRGB">
<feFlood flood-opacity="0" result="BackgroundImageFix"/>
<feColorMatrix in="SourceAlpha" type="matrix" values="0 0 0 0 0 0 0 0 0 0 0 0 0 0 0 0 0 0 127 0" result="hardAlpha"/>
<feOffset dy="32.5"/>
<feGaussianBlur stdDeviation="20.475"/>
<feComposite in2="hardAlpha" operator="out"/>
<feColorMatrix type="matrix" values="0 0 0 0 0.262745 0 0 0 0 0.0941176 0 0 0 0 1 0 0 0 0.28 0"/>
<feBlend mode="normal" in2="BackgroundImageFix" result="effect1_dropShadow_91_1078"/>
<feBlend mode="normal" in="SourceGraphic" in2="effect1_dropShadow_91_1078" result="shape"/>
</filter>
</defs>
</svg>
